HIERARCHY
ROOT Hips
{
  OFFSET 1.44925e-005 102.336 -0.101585
  CHANNELS 6 Xposition Yposition Zposition Zrotation Xrotation Yrotation
  JOINT LeftUpLeg
  {
    OFFSET 8.9458 -8.66707 0.101652
    CHANNELS 3 Zrotation Xrotation Yrotation
    JOINT LeftLeg
    {
      OFFSET 0 -44.4227 1.3727
      CHANNELS 3 Zrotation Xrotation Yrotation
      JOINT LeftFoot
      {
        OFFSET -0.253549 -42.0924 -1.46059
        CHANNELS 3 Zrotation Xrotation Yrotation
        JOINT LeftToes
        {
          OFFSET -0.04 -4.41509 8.4991
          CHANNELS 3 Zrotation Xrotation Yrotation
          End Site
          {
            OFFSET 0.08 -0.047448 9.77979
          }
        }
      }
    }
  }
  JOINT Spine
  {
    OFFSET 0 11.8905 0
    CHANNELS 3 Zrotation Xrotation Yrotation
    JOINT Spine1
    {
      OFFSET 0 25.6574 0.127663
      CHANNELS 3 Zrotation Xrotation Yrotation
      JOINT RightShoulder
      {
        OFFSET -8.99 -0.362252 -0.22
        CHANNELS 3 Zrotation Xrotation Yrotation
        JOINT RightArm
        {
          OFFSET -10.2827 -0.00338 0.322123
          CHANNELS 3 Zrotation Xrotation Yrotation
          JOINT RightForeArm
          {
            OFFSET -26.364 0.099144 -1.42434
            CHANNELS 3 Zrotation Xrotation Yrotation
            JOINT RightHand
            {
              OFFSET -22.0324 0.085362 1.02216
              CHANNELS 3 Zrotation Xrotation Yrotation
              End Site
              {
                OFFSET -13.3284 -0.6 1.50291
              }
            }
          }
        }
      }
      JOINT LeftShoulder1
      {
        OFFSET 8.99 -0.362252 -0.22
        CHANNELS 3 Zrotation Xrotation Yrotation
        JOINT LeftArm
        {
          OFFSET 10.2827 -0.00337999 0.322123
          CHANNELS 3 Zrotation Xrotation Yrotation
          JOINT LeftForeArm
          {
            OFFSET 26.2597 0.099144 -1.42434
            CHANNELS 3 Zrotation Xrotation Yrotation
            JOINT LeftHand
            {
              OFFSET 22.0902 0.085362 1.02216
              CHANNELS 3 Zrotation Xrotation Yrotation
              End Site
              {
                OFFSET 13.419 -0.6 1.50291
              }
            }
          }
        }
      }
      JOINT Head
      {
        OFFSET 0 8.73416 0.011341
        CHANNELS 3 Zrotation Xrotation Yrotation
        End Site
        {
          OFFSET -0.29 12.7742 2.51395
        }
      }
    }
  }
  JOINT RightUpLeg
  {
    OFFSET -8.9458 -8.66707 0.101652
    CHANNELS 3 Zrotation Xrotation Yrotation
    JOINT RightLeg
    {
      OFFSET 0 -44.4227 1.3727
      CHANNELS 3 Zrotation Xrotation Yrotation
      JOINT RightFoot
      {
        OFFSET 0.253549 -42.0924 -1.46059
        CHANNELS 3 Zrotation Xrotation Yrotation
        JOINT RightToes
        {
          OFFSET 0.04 -4.41509 8.4991
          CHANNELS 3 Zrotation Xrotation Yrotation
          End Site
          {
            OFFSET -0.08 -0.137448 9.77979
          }
        }
      }
    }
  }
}
MOTION
Frames:	10
Frame Time:	0.0333333
180.972 102.827 2.99767 -2.9103 -0.123023 -92.1755 -1.23181 3.74289 2.84204 -0.290757 8.56424 24.1137 -3.27351 -13.018 -0.0929294 -1.32838e-009 8.75231e-006 -1.4753e-008 0.667902 5.56446 0.903874 -1.37322 -1.84147 1.21643 36.4887 1.73366 0.0587699 41.3008 -18.2307 1.70023 6.45133 35.3513 11.0064 -8.16181 9.52351 0.456901 -43.9055 3.51931 -3.4623 -27.4077 -11.1214 6.00143 -2.62706 31.3231 -17.7166 5.82328 9.61819 -0.917488 0.143748 -2.59073 -4.65641 -1.3166 3.49022 -3.87142 -1.16954 10.219 -6.04739 4.47738 -14.3627 0.0452648 0.0462048 0.000530889 0.662642 
180.968 102.827 2.98804 -2.89491 -0.128444 -92.1643 -1.23171 3.74289 2.84051 -0.289749 8.54084 24.102 -3.27348 -13.0034 -0.092924 -1.32838e-009 8.75231e-006 -1.4753e-008 0.651387 5.58774 0.880385 -1.39291 -1.85782 1.19435 36.6005 1.7394 0.05877 41.1923 -18.0194 1.73964 6.53909 35.1174 10.9773 -8.24292 9.51707 0.494589 -43.8505 3.50791 -3.44805 -27.4606 -11.0125 6.04603 -2.57758 31.1985 -17.8094 5.82328 9.61819 -0.917488 -0.0818729 -2.76045 -4.73795 -1.31824 3.47631 -3.85998 -1.16789 10.2171 -6.05708 4.45743 -14.369 0.045266 0.0462048 0.000530889 0.662642 
180.945 102.827 2.96534 -2.87067 -0.145057 -92.0984 -1.23098 3.74293 2.82922 -0.282861 8.49745 24.0448 -3.27011 -12.989 -0.0929186 -1.32838e-009 8.75231e-006 -1.4753e-008 0.558247 5.59965 0.841723 -1.32114 -1.83776 1.14189 36.6872 1.74311 0.0570376 41.0994 -18.0191 1.82737 6.54159 35.3355 10.9254 -8.18017 9.51712 0.544578 -43.8761 3.5065 -3.4414 -27.4703 -10.7227 6.12429 -2.53151 30.7796 -17.9873 5.82328 9.61819 -0.917488 -0.228056 -2.85082 -4.75461 -1.31948 3.48114 -3.86776 -1.15379 10.2061 -6.11879 4.4198 -14.3759 0.0452674 0.0462048 0.000530889 0.662642 
180.913 102.827 2.93896 -2.83712 -0.168426 -92.0078 -1.22933 3.74301 2.80403 -0.27133 8.44927 23.9767 -3.25328 -12.9796 -0.0929151 -1.32838e-009 8.75231e-006 -1.4753e-008 0.411185 5.52662 0.822751 -1.15271 -1.71088 1.0949 36.6573 1.74582 0.0504612 41.0982 -18.2067 1.90245 6.47173 35.6749 10.9072 -8.12682 9.53218 0.34593 -44.0519 3.52516 -3.45181 -27.3258 -10.5459 6.13915 -2.55503 30.417 -18.0682 5.82328 9.61819 -0.917488 0.099489 -2.53549 -4.60085 -1.32717 3.48579 -3.89764 -1.12586 10.1888 -6.19553 4.4039 -14.3987 0.045272 0.0462048 0.000530889 0.662642 
180.884 102.827 2.91786 -2.80449 -0.190169 -91.9447 -1.22774 3.74305 2.79072 -0.270533 8.41602 23.9248 -3.23396 -12.9777 -0.0929143 -1.32838e-009 8.75231e-006 -1.4753e-008 0.360945 5.54078 0.814168 -1.13321 -1.74869 1.08305 36.7083 1.74785 0.0448633 41.0113 -18.1585 1.81836 6.44216 35.565 10.9703 -8.27161 9.53876 0.124978 -44.1324 3.53155 -3.45231 -27.1947 -10.57 6.15965 -2.54157 30.4467 -18.0733 5.82328 9.61819 -0.917488 0.623068 -1.98765 -4.48365 -1.34093 3.47875 -3.92785 -1.10296 10.1834 -6.23125 4.4195 -14.4297 0.0452783 0.0462048 0.000530889 0.662642 
180.854 102.827 2.90257 -2.78731 -0.203837 -91.9016 -1.2227 3.74389 2.7987 -0.279668 8.41404 23.8701 -3.24249 -12.9889 -0.0929185 -1.32838e-009 8.75231e-006 -1.4753e-008 0.482241 5.79404 0.780864 -1.40363 -2.15395 1.09295 36.9936 1.74853 0.0363558 40.7383 -17.8124 1.55074 6.43879 35.2673 11.0934 -8.46043 9.51594 0.340283 -43.8817 3.49982 -3.42732 -27.335 -10.5252 6.30006 -2.36639 30.7151 -18.199 5.82328 9.61819 -0.917488 0.842881 -1.65273 -4.57492 -1.35097 3.49109 -3.94795 -1.08573 10.1753 -6.25043 4.40492 -14.4418 0.0452808 0.0462048 0.000530889 0.662642 
180.814 102.827 2.88846 -2.77608 -0.20328 -91.8489 -1.20836 3.74966 2.80699 -0.276377 8.41672 23.808 -3.2582 -12.9954 -0.092921 -1.32838e-009 8.75231e-006 -1.4753e-008 0.614424 6.06825 0.735237 -1.68171 -2.57666 1.09034 37.2619 1.747 0.0208359 40.5276 -17.498 1.30577 6.39657 35.1966 11.2159 -8.53618 9.47956 0.841147 -43.5193 3.46078 -3.40433 -27.6435 -10.3177 6.45574 -2.13032 30.8731 -18.4322 5.82328 9.61819 -0.917488 0.702142 -1.70791 -4.73198 -1.3404 3.53177 -3.95356 -1.0678 10.1415 -6.30531 4.33051 -14.4398 0.0452804 0.0462048 0.000530889 0.662642 
180.775 102.827 2.87374 -2.75639 -0.190241 -91.803 -1.19043 3.76638 2.80728 -0.258045 8.37794 23.768 -3.24886 -12.9729 -0.0929125 -1.32838e-009 8.75231e-006 -1.4753e-008 0.558502 6.07799 0.72983 -1.6092 -2.58201 1.07099 37.1588 1.74028 0.0133977 40.6521 -17.3996 1.25395 6.34451 35.1734 11.3049 -8.60797 9.46141 1.05849 -43.4698 3.45965 -3.40947 -27.7441 -10.2396 6.43108 -2.07891 30.874 -18.4953 5.82328 9.61819 -0.917488 0.502745 -1.93086 -4.76083 -1.30713 3.56791 -3.93549 -1.06092 10.0908 -6.37825 4.28249 -14.4445 0.0452813 0.0462048 0.000530889 0.662642 
180.744 102.827 2.86106 -2.73519 -0.184726 -91.7876 -1.18027 3.78986 2.80653 -0.248688 8.32146 23.7549 -3.23612 -12.9422 -0.0929011 -1.32838e-009 8.75231e-006 -1.4753e-008 0.363383 5.94267 0.76482 -1.29516 -2.3615 1.05189 36.7975 1.7315 0.0235943 40.9698 -17.4518 1.29185 6.331 35.0302 11.3446 -8.70269 9.46647 0.902756 -43.7117 3.48674 -3.42699 -27.5692 -10.4642 6.27541 -2.27599 30.902 -18.2562 5.82328 9.61819 -0.917488 0.444353 -2.01048 -4.70246 -1.27893 3.58262 -3.9015 -1.07858 10.0529 -6.42812 4.32081 -14.4431 0.0452811 0.0462048 0.000530889 0.662642 
180.716 102.827 2.85346 -2.71325 -0.202791 -91.7853 -1.19182 3.78736 2.80197 -0.253122 8.31753 23.7489 -3.2506 -12.9431 -0.0929014 -1.32838e-009 8.75231e-006 -1.4753e-008 0.227369 5.91748 0.786299 -1.12071 -2.33821 1.04123 36.5999 1.72885 0.0343263 41.1403 -17.6813 1.26025 6.31507 35.1397 11.3055 -8.6158 9.48258 0.729724 -43.8523 3.49864 -3.42943 -27.4154 -10.8021 6.18485 -2.54594 31.0427 -17.8975 5.82328 9.61819 -0.917488 0.504305 -1.88906 -4.68172 -1.28004 3.58276 -3.87898 -1.10462 10.0372 -6.46211 4.35595 -14.4278 0.0452286 0.0462048 0.000530889 0.662642 
